<mxfile host="app.diagrams.net" agent="Mozilla/5.0 (Windows NT 10.0; Win64; x64) AppleWebKit/537.36 (KHTML, like Gecko) Chrome/132.0.0.0 Safari/537.36" version="26.0.14">
  <diagram name="Page-1" id="38b20595-45e3-9b7f-d5ca-b57f44c5b66d">
    <mxGraphModel dx="2200" dy="1150" grid="1" gridSize="10" guides="1" tooltips="1" connect="1" arrows="1" fold="1" page="1" pageScale="1" pageWidth="1100" pageHeight="850" background="none" math="0" shadow="0">
      <root>
        <mxCell id="0" />
        <mxCell id="1" parent="0" />
        <mxCell id="48ef80bc37b76060-48" value="" style="verticalLabelPosition=bottom;html=1;verticalAlign=top;align=center;strokeWidth=1;shape=mxgraph.floorplan.office_chair;shadow=0;rounded=0;comic=0;fontFamily=Verdana;fontSize=12;" parent="1" vertex="1">
          <mxGeometry x="493" y="1372" width="40" height="43" as="geometry" />
        </mxCell>
        <mxCell id="48ef80bc37b76060-49" value="" style="shape=rect;shadow=0;rounded=0;comic=0;fontFamily=Verdana;fontSize=12;align=center;html=1;" parent="1" vertex="1">
          <mxGeometry x="403" y="1392" width="300" height="50" as="geometry" />
        </mxCell>
        <mxCell id="48ef80bc37b76060-46" value="" style="group" parent="1" vertex="1" connectable="0">
          <mxGeometry x="916" y="1372" width="80" height="70" as="geometry" />
        </mxCell>
        <mxCell id="48ef80bc37b76060-1" value="" style="verticalLabelPosition=bottom;html=1;verticalAlign=top;align=center;strokeWidth=1;shape=mxgraph.floorplan.office_chair;shadow=0;rounded=0;comic=0;fontFamily=Verdana;fontSize=12;" parent="48ef80bc37b76060-46" vertex="1">
          <mxGeometry x="20" width="40" height="43" as="geometry" />
        </mxCell>
        <mxCell id="48ef80bc37b76060-2" value="" style="shape=rect;shadow=0;rounded=0;comic=0;fontFamily=Verdana;fontSize=12;align=center;html=1;" parent="48ef80bc37b76060-46" vertex="1">
          <mxGeometry y="20" width="80" height="50" as="geometry" />
        </mxCell>
        <mxCell id="48ef80bc37b76060-3" value="" style="verticalLabelPosition=bottom;html=1;verticalAlign=top;align=center;strokeWidth=1;shape=mxgraph.floorplan.workstation;shadow=0;flipV=1;rounded=0;comic=0;fontFamily=Verdana;fontSize=12;" parent="48ef80bc37b76060-46" vertex="1">
          <mxGeometry x="15" y="30" width="50" height="40" as="geometry" />
        </mxCell>
        <mxCell id="48ef80bc37b76060-55" value="" style="group;rotation=90;" parent="1" vertex="1" connectable="0">
          <mxGeometry x="398" y="947" width="80" height="70" as="geometry" />
        </mxCell>
        <mxCell id="48ef80bc37b76060-56" value="" style="verticalLabelPosition=bottom;html=1;verticalAlign=top;align=center;strokeWidth=1;shape=mxgraph.floorplan.office_chair;shadow=0;rounded=0;comic=0;fontFamily=Verdana;fontSize=12;rotation=90;" parent="48ef80bc37b76060-55" vertex="1">
          <mxGeometry x="34" y="14" width="40" height="43" as="geometry" />
        </mxCell>
        <mxCell id="48ef80bc37b76060-57" value="" style="shape=rect;shadow=0;rounded=0;comic=0;fontFamily=Verdana;fontSize=12;align=center;html=1;rotation=90;" parent="48ef80bc37b76060-55" vertex="1">
          <mxGeometry x="-10" y="10" width="80" height="50" as="geometry" />
        </mxCell>
        <mxCell id="48ef80bc37b76060-58" value="" style="verticalLabelPosition=bottom;html=1;verticalAlign=top;align=center;strokeWidth=1;shape=mxgraph.floorplan.workstation;shadow=0;flipV=1;rounded=0;comic=0;fontFamily=Verdana;fontSize=12;rotation=90;" parent="48ef80bc37b76060-55" vertex="1">
          <mxGeometry y="15" width="50" height="40" as="geometry" />
        </mxCell>
        <mxCell id="48ef80bc37b76060-114" value="" style="verticalLabelPosition=bottom;html=1;verticalAlign=top;align=center;strokeWidth=1;shape=mxgraph.floorplan.office_chair;shadow=0;rounded=0;comic=0;fontFamily=Verdana;fontSize=12;" parent="1" vertex="1">
          <mxGeometry x="1023" y="642" width="40" height="43" as="geometry" />
        </mxCell>
        <mxCell id="48ef80bc37b76060-115" value="" style="verticalLabelPosition=bottom;html=1;verticalAlign=top;align=center;strokeWidth=1;shape=mxgraph.floorplan.office_chair;shadow=0;direction=west;rounded=0;comic=0;fontFamily=Verdana;fontSize=12;" parent="1" vertex="1">
          <mxGeometry x="1023" y="739" width="40" height="43" as="geometry" />
        </mxCell>
        <mxCell id="48ef80bc37b76060-116" value="" style="verticalLabelPosition=bottom;html=1;verticalAlign=top;align=center;strokeWidth=1;shape=mxgraph.floorplan.office_chair;shadow=0;direction=north;rounded=0;comic=0;fontFamily=Verdana;fontSize=12;" parent="1" vertex="1">
          <mxGeometry x="973" y="692" width="43" height="40" as="geometry" />
        </mxCell>
        <mxCell id="48ef80bc37b76060-117" value="" style="verticalLabelPosition=bottom;html=1;verticalAlign=top;align=center;strokeWidth=1;shape=mxgraph.floorplan.office_chair;shadow=0;direction=south;rounded=0;comic=0;fontFamily=Verdana;fontSize=12;" parent="1" vertex="1">
          <mxGeometry x="1070" y="692" width="43" height="40" as="geometry" />
        </mxCell>
        <mxCell id="48ef80bc37b76060-118" value="" style="shape=rect;shadow=0;rounded=0;comic=0;fontFamily=Verdana;fontSize=12;align=center;html=1;" parent="1" vertex="1">
          <mxGeometry x="993" y="662" width="100" height="100" as="geometry" />
        </mxCell>
        <mxCell id="48ef80bc37b76060-119" value="" style="verticalLabelPosition=bottom;html=1;verticalAlign=top;align=center;strokeWidth=1;shape=mxgraph.floorplan.office_chair;fillColor=#ffffff;strokeColor=#000000;shadow=0;rounded=0;comic=0;fontFamily=Verdana;fontSize=12;" parent="1" vertex="1">
          <mxGeometry x="1023" y="882" width="40" height="43" as="geometry" />
        </mxCell>
        <mxCell id="48ef80bc37b76060-120" value="" style="verticalLabelPosition=bottom;html=1;verticalAlign=top;align=center;strokeWidth=1;shape=mxgraph.floorplan.office_chair;fillColor=#ffffff;strokeColor=#000000;shadow=0;direction=west;rounded=0;comic=0;fontFamily=Verdana;fontSize=12;" parent="1" vertex="1">
          <mxGeometry x="1023" y="979" width="40" height="43" as="geometry" />
        </mxCell>
        <mxCell id="48ef80bc37b76060-121" value="" style="verticalLabelPosition=bottom;html=1;verticalAlign=top;align=center;strokeWidth=1;shape=mxgraph.floorplan.office_chair;fillColor=#ffffff;strokeColor=#000000;shadow=0;direction=north;rounded=0;comic=0;fontFamily=Verdana;fontSize=12;" parent="1" vertex="1">
          <mxGeometry x="973" y="932" width="43" height="40" as="geometry" />
        </mxCell>
        <mxCell id="48ef80bc37b76060-122" value="" style="verticalLabelPosition=bottom;html=1;verticalAlign=top;align=center;strokeWidth=1;shape=mxgraph.floorplan.office_chair;fillColor=#ffffff;strokeColor=#000000;shadow=0;direction=south;rounded=0;comic=0;fontFamily=Verdana;fontSize=12;" parent="1" vertex="1">
          <mxGeometry x="1070" y="932" width="43" height="40" as="geometry" />
        </mxCell>
        <mxCell id="48ef80bc37b76060-123" value="" style="shape=rect;shadow=0;rounded=0;comic=0;fontFamily=Verdana;fontSize=12;align=center;html=1;" parent="1" vertex="1">
          <mxGeometry x="993" y="902" width="100" height="100" as="geometry" />
        </mxCell>
        <mxCell id="48ef80bc37b76060-124" value="" style="verticalLabelPosition=bottom;html=1;verticalAlign=top;align=center;strokeWidth=1;shape=mxgraph.floorplan.doorRight;rounded=0;shadow=0;comic=0;fontFamily=Verdana;fontSize=12;" parent="1" vertex="1">
          <mxGeometry x="693" y="1250" width="80" height="85" as="geometry" />
        </mxCell>
        <mxCell id="48ef80bc37b76060-125" value="" style="verticalLabelPosition=bottom;html=1;verticalAlign=top;align=center;strokeWidth=1;shape=mxgraph.floorplan.doorLeft;rounded=0;shadow=0;comic=0;fontFamily=Verdana;fontSize=12;" parent="1" vertex="1">
          <mxGeometry x="796" y="1251" width="80" height="85" as="geometry" />
        </mxCell>
        <mxCell id="48ef80bc37b76060-126" value="" style="verticalLabelPosition=bottom;html=1;verticalAlign=top;align=center;strokeWidth=1;shape=mxgraph.floorplan.doorLeft;rounded=0;shadow=0;comic=0;fontFamily=Verdana;fontSize=12;" parent="1" vertex="1">
          <mxGeometry x="1244" y="1251" width="80" height="85" as="geometry" />
        </mxCell>
        <mxCell id="48ef80bc37b76060-127" value="" style="verticalLabelPosition=bottom;html=1;verticalAlign=top;align=center;strokeWidth=1;shape=mxgraph.floorplan.wallCorner;fillColor=#000000;rounded=0;shadow=0;comic=0;fontFamily=Verdana;fontSize=12;" parent="1" vertex="1">
          <mxGeometry x="393" y="243" width="100" height="385" as="geometry" />
        </mxCell>
        <mxCell id="48ef80bc37b76060-128" value="" style="verticalLabelPosition=bottom;html=1;verticalAlign=top;align=center;strokeWidth=1;shape=mxgraph.floorplan.wallU;fillColor=#000000;rounded=0;shadow=0;comic=0;fontFamily=Verdana;fontSize=12;rotation=90;" parent="1" vertex="1">
          <mxGeometry x="585" y="68" width="1210" height="1572" as="geometry" />
        </mxCell>
        <mxCell id="48ef80bc37b76060-130" value="" style="verticalLabelPosition=bottom;html=1;verticalAlign=top;align=center;strokeWidth=1;shape=mxgraph.floorplan.wallU;fillColor=#000000;rounded=0;shadow=0;comic=0;fontFamily=Verdana;fontSize=12;rotation=90;" parent="1" vertex="1">
          <mxGeometry x="778" y="645" width="481" height="335" as="geometry" />
        </mxCell>
        <mxCell id="48ef80bc37b76060-136" value="" style="verticalLabelPosition=bottom;html=1;verticalAlign=top;align=center;strokeWidth=1;shape=mxgraph.floorplan.doorDouble;rounded=0;shadow=0;comic=0;fontFamily=Verdana;fontSize=12;rotation=-90;" parent="1" vertex="1">
          <mxGeometry x="358" y="666" width="160" height="85" as="geometry" />
        </mxCell>
        <mxCell id="48ef80bc37b76060-137" value="" style="verticalLabelPosition=bottom;html=1;verticalAlign=top;align=center;strokeWidth=1;shape=mxgraph.floorplan.wall;fillColor=#000000;rounded=0;shadow=0;comic=0;fontFamily=Verdana;fontSize=12;" parent="1" vertex="1">
          <mxGeometry x="394" y="1024" width="204" height="10" as="geometry" />
        </mxCell>
        <mxCell id="48ef80bc37b76060-138" value="" style="verticalLabelPosition=bottom;html=1;verticalAlign=top;align=center;strokeWidth=1;shape=mxgraph.floorplan.wall;fillColor=#000000;direction=south;rounded=0;shadow=0;comic=0;fontFamily=Verdana;fontSize=12;" parent="1" vertex="1">
          <mxGeometry x="593" y="912" width="10" height="246" as="geometry" />
        </mxCell>
        <mxCell id="48ef80bc37b76060-142" value="" style="verticalLabelPosition=bottom;html=1;verticalAlign=top;align=center;strokeWidth=1;shape=mxgraph.floorplan.wallCorner;fillColor=#000000;direction=south;rounded=0;shadow=0;comic=0;fontFamily=Verdana;fontSize=12;" parent="1" vertex="1">
          <mxGeometry x="398" y="814" width="205" height="17" as="geometry" />
        </mxCell>
        <mxCell id="48ef80bc37b76060-139" value="" style="verticalLabelPosition=bottom;html=1;verticalAlign=top;align=center;strokeWidth=1;shape=mxgraph.floorplan.doorLeft;rounded=0;shadow=0;comic=0;fontFamily=Verdana;fontSize=12;rotation=90;" parent="1" vertex="1">
          <mxGeometry x="517" y="829" width="80" height="85" as="geometry" />
        </mxCell>
        <mxCell id="48ef80bc37b76060-143" value="" style="verticalLabelPosition=bottom;html=1;verticalAlign=top;align=center;strokeWidth=1;shape=mxgraph.floorplan.dresser;rounded=0;shadow=0;comic=0;fontFamily=Verdana;fontSize=12;rotation=90;" parent="1" vertex="1">
          <mxGeometry x="510" y="941" width="100" height="65" as="geometry" />
        </mxCell>
        <mxCell id="48ef80bc37b76060-144" value="" style="verticalLabelPosition=bottom;html=1;verticalAlign=top;align=center;strokeWidth=1;shape=mxgraph.floorplan.plant;rounded=0;shadow=0;comic=0;fontFamily=Verdana;fontSize=12;" parent="1" vertex="1">
          <mxGeometry x="406" y="829" width="47" height="51" as="geometry" />
        </mxCell>
        <mxCell id="48ef80bc37b76060-145" value="" style="group;rotation=90;" parent="1" vertex="1" connectable="0">
          <mxGeometry x="399" y="1040" width="80" height="70" as="geometry" />
        </mxCell>
        <mxCell id="48ef80bc37b76060-146" value="" style="verticalLabelPosition=bottom;html=1;verticalAlign=top;align=center;strokeWidth=1;shape=mxgraph.floorplan.office_chair;shadow=0;rounded=0;comic=0;fontFamily=Verdana;fontSize=12;rotation=90;" parent="48ef80bc37b76060-145" vertex="1">
          <mxGeometry x="34" y="14" width="40" height="43" as="geometry" />
        </mxCell>
        <mxCell id="48ef80bc37b76060-147" value="" style="shape=rect;shadow=0;rounded=0;comic=0;fontFamily=Verdana;fontSize=12;align=center;html=1;rotation=90;" parent="48ef80bc37b76060-145" vertex="1">
          <mxGeometry x="-10" y="10" width="80" height="50" as="geometry" />
        </mxCell>
        <mxCell id="48ef80bc37b76060-148" value="" style="verticalLabelPosition=bottom;html=1;verticalAlign=top;align=center;strokeWidth=1;shape=mxgraph.floorplan.workstation;shadow=0;flipV=1;rounded=0;comic=0;fontFamily=Verdana;fontSize=12;rotation=90;" parent="48ef80bc37b76060-145" vertex="1">
          <mxGeometry y="15" width="50" height="40" as="geometry" />
        </mxCell>
        <mxCell id="48ef80bc37b76060-149" value="" style="verticalLabelPosition=bottom;html=1;verticalAlign=top;align=center;strokeWidth=1;shape=mxgraph.floorplan.wall;fillColor=#000000;rounded=0;shadow=0;comic=0;fontFamily=Verdana;fontSize=12;" parent="1" vertex="1">
          <mxGeometry x="394" y="1248" width="299" height="10" as="geometry" />
        </mxCell>
        <mxCell id="48ef80bc37b76060-150" value="" style="verticalLabelPosition=bottom;html=1;verticalAlign=top;align=center;strokeWidth=1;shape=mxgraph.floorplan.wall;fillColor=#000000;direction=south;rounded=0;shadow=0;comic=0;fontFamily=Verdana;fontSize=12;" parent="1" vertex="1">
          <mxGeometry x="593" y="1239" width="10" height="18" as="geometry" />
        </mxCell>
        <mxCell id="48ef80bc37b76060-151" value="" style="verticalLabelPosition=bottom;html=1;verticalAlign=top;align=center;strokeWidth=1;shape=mxgraph.floorplan.doorLeft;rounded=0;shadow=0;comic=0;fontFamily=Verdana;fontSize=12;rotation=90;flipV=0;flipH=1;" parent="1" vertex="1">
          <mxGeometry x="517" y="1156" width="80" height="85" as="geometry" />
        </mxCell>
        <mxCell id="48ef80bc37b76060-152" value="" style="verticalLabelPosition=bottom;html=1;verticalAlign=top;align=center;strokeWidth=1;shape=mxgraph.floorplan.dresser;rounded=0;shadow=0;comic=0;fontFamily=Verdana;fontSize=12;rotation=90;" parent="1" vertex="1">
          <mxGeometry x="510" y="1051" width="100" height="65" as="geometry" />
        </mxCell>
        <mxCell id="48ef80bc37b76060-153" value="" style="verticalLabelPosition=bottom;html=1;verticalAlign=top;align=center;strokeWidth=1;shape=mxgraph.floorplan.plant;rounded=0;shadow=0;comic=0;fontFamily=Verdana;fontSize=12;" parent="1" vertex="1">
          <mxGeometry x="409" y="1190" width="47" height="51" as="geometry" />
        </mxCell>
        <mxCell id="48ef80bc37b76060-50" value="" style="verticalLabelPosition=bottom;html=1;verticalAlign=top;align=center;strokeWidth=1;shape=mxgraph.floorplan.workstation;shadow=0;flipV=1;rounded=0;comic=0;fontFamily=Verdana;fontSize=12;" parent="1" vertex="1">
          <mxGeometry x="488" y="1402" width="50" height="40" as="geometry" />
        </mxCell>
        <mxCell id="48ef80bc37b76060-154" value="" style="verticalLabelPosition=bottom;html=1;verticalAlign=top;align=center;strokeWidth=1;shape=mxgraph.floorplan.flat_tv;rounded=0;shadow=0;comic=0;fontFamily=Verdana;fontSize=12;rotation=-165;" parent="1" vertex="1">
          <mxGeometry x="413" y="1425" width="70" height="10" as="geometry" />
        </mxCell>
        <mxCell id="48ef80bc37b76060-155" value="" style="verticalLabelPosition=bottom;html=1;verticalAlign=top;align=center;strokeWidth=1;shape=mxgraph.floorplan.flat_tv;rounded=0;shadow=0;comic=0;fontFamily=Verdana;fontSize=12;rotation=160;" parent="1" vertex="1">
          <mxGeometry x="544" y="1425" width="70" height="10" as="geometry" />
        </mxCell>
        <mxCell id="48ef80bc37b76060-156" value="" style="verticalLabelPosition=bottom;html=1;verticalAlign=top;align=center;strokeWidth=1;shape=mxgraph.floorplan.wall;fillColor=#000000;direction=south;rounded=0;shadow=0;comic=0;fontFamily=Verdana;fontSize=12;" parent="1" vertex="1">
          <mxGeometry x="393" y="789" width="10" height="664" as="geometry" />
        </mxCell>
        <mxCell id="48ef80bc37b76060-157" value="" style="verticalLabelPosition=bottom;html=1;verticalAlign=top;align=center;strokeWidth=1;shape=mxgraph.floorplan.wall;fillColor=#000000;direction=south;rounded=0;shadow=0;comic=0;fontFamily=Verdana;fontSize=12;" parent="1" vertex="1">
          <mxGeometry x="780" y="1257" width="10" height="191" as="geometry" />
        </mxCell>
        <mxCell id="48ef80bc37b76060-158" value="" style="verticalLabelPosition=bottom;html=1;verticalAlign=top;align=center;strokeWidth=1;shape=mxgraph.floorplan.wall;fillColor=#000000;rounded=0;shadow=0;comic=0;fontFamily=Verdana;fontSize=12;" parent="1" vertex="1">
          <mxGeometry x="774" y="1248" width="22" height="10" as="geometry" />
        </mxCell>
        <mxCell id="48ef80bc37b76060-159" value="" style="verticalLabelPosition=bottom;html=1;verticalAlign=top;align=center;strokeWidth=1;shape=mxgraph.floorplan.dresser;rounded=0;shadow=0;comic=0;fontFamily=Verdana;fontSize=12;flipV=1;rotation=90;" parent="1" vertex="1">
          <mxGeometry x="386" y="1276" width="100" height="65" as="geometry" />
        </mxCell>
        <mxCell id="48ef80bc37b76060-160" value="" style="verticalLabelPosition=bottom;html=1;verticalAlign=top;align=center;strokeWidth=1;shape=mxgraph.floorplan.plant;rounded=0;shadow=0;comic=0;fontFamily=Verdana;fontSize=12;" parent="1" vertex="1">
          <mxGeometry x="723" y="1389" width="47" height="51" as="geometry" />
        </mxCell>
        <mxCell id="48ef80bc37b76060-161" value="" style="verticalLabelPosition=bottom;html=1;verticalAlign=top;align=center;strokeWidth=1;shape=mxgraph.floorplan.plant;rounded=0;shadow=0;comic=0;fontFamily=Verdana;fontSize=12;" parent="1" vertex="1">
          <mxGeometry x="796" y="1387" width="47" height="51" as="geometry" />
        </mxCell>
        <mxCell id="48ef80bc37b76060-162" value="" style="verticalLabelPosition=bottom;html=1;verticalAlign=top;align=center;strokeWidth=1;shape=mxgraph.floorplan.wall;fillColor=#000000;direction=south;rounded=0;shadow=0;comic=0;fontFamily=Verdana;fontSize=12;" parent="1" vertex="1">
          <mxGeometry x="1003" y="1257" width="10" height="191" as="geometry" />
        </mxCell>
        <mxCell id="48ef80bc37b76060-163" value="" style="verticalLabelPosition=bottom;html=1;verticalAlign=top;align=center;strokeWidth=1;shape=mxgraph.floorplan.wall;fillColor=#000000;rounded=0;shadow=0;comic=0;fontFamily=Verdana;fontSize=12;" parent="1" vertex="1">
          <mxGeometry x="876" y="1248" width="144" height="10" as="geometry" />
        </mxCell>
        <mxCell id="48ef80bc37b76060-164" value="" style="verticalLabelPosition=bottom;html=1;verticalAlign=top;align=center;strokeWidth=1;shape=mxgraph.floorplan.doorLeft;rounded=0;shadow=0;comic=0;fontFamily=Verdana;fontSize=12;" parent="1" vertex="1">
          <mxGeometry x="1020" y="1251" width="80" height="85" as="geometry" />
        </mxCell>
        <mxCell id="48ef80bc37b76060-165" value="" style="group" parent="1" vertex="1" connectable="0">
          <mxGeometry x="1143" y="1373" width="80" height="70" as="geometry" />
        </mxCell>
        <mxCell id="48ef80bc37b76060-4" value="" style="verticalLabelPosition=bottom;html=1;verticalAlign=top;align=center;strokeWidth=1;shape=mxgraph.floorplan.office_chair;shadow=0;rounded=0;comic=0;fontFamily=Verdana;fontSize=12;" parent="48ef80bc37b76060-165" vertex="1">
          <mxGeometry x="20" width="40" height="43" as="geometry" />
        </mxCell>
        <mxCell id="48ef80bc37b76060-5" value="" style="shape=rect;shadow=0;rounded=0;comic=0;fontFamily=Verdana;fontSize=12;align=center;html=1;" parent="48ef80bc37b76060-165" vertex="1">
          <mxGeometry y="20" width="80" height="50" as="geometry" />
        </mxCell>
        <mxCell id="48ef80bc37b76060-6" value="" style="verticalLabelPosition=bottom;html=1;verticalAlign=top;align=center;strokeWidth=1;shape=mxgraph.floorplan.workstation;shadow=0;flipV=1;rounded=0;comic=0;fontFamily=Verdana;fontSize=12;" parent="48ef80bc37b76060-165" vertex="1">
          <mxGeometry x="15" y="30" width="50" height="40" as="geometry" />
        </mxCell>
        <mxCell id="48ef80bc37b76060-166" value="" style="verticalLabelPosition=bottom;html=1;verticalAlign=top;align=center;strokeWidth=1;shape=mxgraph.floorplan.plant;rounded=0;shadow=0;comic=0;fontFamily=Verdana;fontSize=12;" parent="1" vertex="1">
          <mxGeometry x="1019" y="1387" width="47" height="51" as="geometry" />
        </mxCell>
        <mxCell id="48ef80bc37b76060-169" value="" style="verticalLabelPosition=bottom;html=1;verticalAlign=top;align=center;strokeWidth=1;shape=mxgraph.floorplan.wall;fillColor=#000000;direction=south;rounded=0;shadow=0;comic=0;fontFamily=Verdana;fontSize=12;" parent="1" vertex="1">
          <mxGeometry x="1228" y="1258" width="10" height="191" as="geometry" />
        </mxCell>
        <mxCell id="48ef80bc37b76060-170" value="" style="verticalLabelPosition=bottom;html=1;verticalAlign=top;align=center;strokeWidth=1;shape=mxgraph.floorplan.wall;fillColor=#000000;rounded=0;shadow=0;comic=0;fontFamily=Verdana;fontSize=12;" parent="1" vertex="1">
          <mxGeometry x="1100" y="1248" width="144" height="10" as="geometry" />
        </mxCell>
        <mxCell id="48ef80bc37b76060-171" value="" style="verticalLabelPosition=bottom;html=1;verticalAlign=top;align=center;strokeWidth=1;shape=mxgraph.floorplan.wall;fillColor=#000000;rounded=0;shadow=0;comic=0;fontFamily=Verdana;fontSize=12;" parent="1" vertex="1">
          <mxGeometry x="1324" y="1248" width="129" height="10" as="geometry" />
        </mxCell>
        <mxCell id="48ef80bc37b76060-174" value="" style="verticalLabelPosition=bottom;html=1;verticalAlign=top;align=center;strokeWidth=1;shape=mxgraph.floorplan.plant;rounded=0;shadow=0;comic=0;fontFamily=Verdana;fontSize=12;" parent="1" vertex="1">
          <mxGeometry x="1244" y="1392" width="47" height="51" as="geometry" />
        </mxCell>
        <mxCell id="48ef80bc37b76060-175" value="" style="verticalLabelPosition=bottom;html=1;verticalAlign=top;align=center;strokeWidth=1;shape=mxgraph.floorplan.dresser;rounded=0;shadow=0;comic=0;fontFamily=Verdana;fontSize=12;rotation=0;" parent="1" vertex="1">
          <mxGeometry x="903" y="1258" width="100" height="65" as="geometry" />
        </mxCell>
        <mxCell id="48ef80bc37b76060-176" value="" style="verticalLabelPosition=bottom;html=1;verticalAlign=top;align=center;strokeWidth=1;shape=mxgraph.floorplan.dresser;rounded=0;shadow=0;comic=0;fontFamily=Verdana;fontSize=12;rotation=0;" parent="1" vertex="1">
          <mxGeometry x="1127" y="1258" width="100" height="65" as="geometry" />
        </mxCell>
        <mxCell id="48ef80bc37b76060-177" value="" style="verticalLabelPosition=bottom;html=1;verticalAlign=top;align=center;strokeWidth=1;shape=mxgraph.floorplan.dresser;rounded=0;shadow=0;comic=0;fontFamily=Verdana;fontSize=12;rotation=0;" parent="1" vertex="1">
          <mxGeometry x="1353" y="1258" width="100" height="65" as="geometry" />
        </mxCell>
        <mxCell id="48ef80bc37b76060-178" value="" style="verticalLabelPosition=bottom;html=1;verticalAlign=top;align=center;strokeWidth=1;shape=mxgraph.floorplan.wallCorner;fillColor=#000000;rounded=0;shadow=0;comic=0;fontFamily=Verdana;fontSize=12;" parent="1" vertex="1">
          <mxGeometry x="1452" y="1190" width="21" height="257" as="geometry" />
        </mxCell>
        <mxCell id="48ef80bc37b76060-179" value="" style="verticalLabelPosition=bottom;html=1;verticalAlign=top;align=center;strokeWidth=1;shape=mxgraph.floorplan.wallCorner;fillColor=#000000;direction=south;rounded=0;shadow=0;comic=0;fontFamily=Verdana;fontSize=12;" parent="1" vertex="1">
          <mxGeometry x="1620" y="1190" width="356" height="261" as="geometry" />
        </mxCell>
        <mxCell id="48ef80bc37b76060-258" value="" style="verticalLabelPosition=bottom;html=1;verticalAlign=top;align=center;strokeWidth=1;shape=mxgraph.floorplan.wallCorner;fillColor=#000000;direction=west;rounded=0;shadow=0;comic=0;fontFamily=Verdana;fontSize=12;" parent="1" vertex="1">
          <mxGeometry x="401" y="607" width="202" height="12" as="geometry" />
        </mxCell>
        <mxCell id="48ef80bc37b76060-260" value="" style="verticalLabelPosition=bottom;html=1;verticalAlign=top;align=center;strokeWidth=1;shape=mxgraph.floorplan.wall;fillColor=#000000;direction=south;rounded=0;shadow=0;comic=0;fontFamily=Verdana;fontSize=12;" parent="1" vertex="1">
          <mxGeometry x="593" y="247" width="10" height="279" as="geometry" />
        </mxCell>
        <mxCell id="48ef80bc37b76060-261" value="" style="verticalLabelPosition=bottom;html=1;verticalAlign=top;align=center;strokeWidth=1;shape=mxgraph.floorplan.doorLeft;rounded=0;shadow=0;comic=0;fontFamily=Verdana;fontSize=12;rotation=90;flipH=1;" parent="1" vertex="1">
          <mxGeometry x="518" y="524" width="80" height="85" as="geometry" />
        </mxCell>
        <mxCell id="48ef80bc37b76060-64" value="" style="verticalLabelPosition=bottom;html=1;verticalAlign=top;align=center;strokeWidth=1;shape=mxgraph.floorplan.office_chair;shadow=0;rounded=0;comic=0;fontFamily=Verdana;fontSize=12;rotation=180;" parent="1" vertex="1">
          <mxGeometry x="476" y="281" width="40" height="43" as="geometry" />
        </mxCell>
        <mxCell id="48ef80bc37b76060-65" value="" style="shape=rect;shadow=0;rounded=0;comic=0;fontFamily=Verdana;fontSize=12;align=center;html=1;rotation=180;" parent="1" vertex="1">
          <mxGeometry x="404" y="253" width="187" height="50" as="geometry" />
        </mxCell>
        <mxCell id="48ef80bc37b76060-66" value="" style="verticalLabelPosition=bottom;html=1;verticalAlign=top;align=center;strokeWidth=1;shape=mxgraph.floorplan.workstation;shadow=0;flipV=1;rounded=0;comic=0;fontFamily=Verdana;fontSize=12;rotation=180;" parent="1" vertex="1">
          <mxGeometry x="471" y="253" width="50" height="40" as="geometry" />
        </mxCell>
        <mxCell id="48ef80bc37b76060-266" value="" style="verticalLabelPosition=bottom;html=1;verticalAlign=top;align=center;strokeWidth=1;shape=mxgraph.floorplan.flat_tv;rounded=0;shadow=0;comic=0;fontFamily=Verdana;fontSize=12;rotation=-35;" parent="1" vertex="1">
          <mxGeometry x="402" y="274" width="70" height="10" as="geometry" />
        </mxCell>
        <mxCell id="48ef80bc37b76060-267" value="" style="verticalLabelPosition=bottom;html=1;verticalAlign=top;align=center;strokeWidth=1;shape=mxgraph.floorplan.flat_tv;rounded=0;shadow=0;comic=0;fontFamily=Verdana;fontSize=12;rotation=30;" parent="1" vertex="1">
          <mxGeometry x="523" y="275" width="70" height="10" as="geometry" />
        </mxCell>
        <mxCell id="48ef80bc37b76060-273" value="" style="group;rotation=-90;" parent="1" vertex="1" connectable="0">
          <mxGeometry x="344" y="477" width="191" height="71" as="geometry" />
        </mxCell>
        <mxCell id="48ef80bc37b76060-268" value="" style="verticalLabelPosition=bottom;html=1;verticalAlign=top;align=center;strokeWidth=1;shape=mxgraph.floorplan.office_chair;shadow=0;rounded=0;comic=0;fontFamily=Verdana;fontSize=12;rotation=90;" parent="48ef80bc37b76060-273" vertex="1">
          <mxGeometry x="90" y="16" width="40" height="43" as="geometry" />
        </mxCell>
        <mxCell id="48ef80bc37b76060-269" value="" style="shape=rect;shadow=0;rounded=0;comic=0;fontFamily=Verdana;fontSize=12;align=center;html=1;rotation=90;" parent="48ef80bc37b76060-273" vertex="1">
          <mxGeometry x="-8" y="11" width="187" height="50" as="geometry" />
        </mxCell>
        <mxCell id="48ef80bc37b76060-270" value="" style="verticalLabelPosition=bottom;html=1;verticalAlign=top;align=center;strokeWidth=1;shape=mxgraph.floorplan.workstation;shadow=0;flipV=1;rounded=0;comic=0;fontFamily=Verdana;fontSize=12;rotation=90;" parent="48ef80bc37b76060-273" vertex="1">
          <mxGeometry x="55" y="17" width="50" height="40" as="geometry" />
        </mxCell>
        <mxCell id="48ef80bc37b76060-271" value="" style="verticalLabelPosition=bottom;html=1;verticalAlign=top;align=center;strokeWidth=1;shape=mxgraph.floorplan.flat_tv;rounded=0;shadow=0;comic=0;fontFamily=Verdana;fontSize=12;rotation=-125;" parent="48ef80bc37b76060-273" vertex="1">
          <mxGeometry x="51" y="91" width="70" height="10" as="geometry" />
        </mxCell>
        <mxCell id="48ef80bc37b76060-272" value="" style="verticalLabelPosition=bottom;html=1;verticalAlign=top;align=center;strokeWidth=1;shape=mxgraph.floorplan.flat_tv;rounded=0;shadow=0;comic=0;fontFamily=Verdana;fontSize=12;rotation=-60;" parent="48ef80bc37b76060-273" vertex="1">
          <mxGeometry x="52" y="-30" width="70" height="10" as="geometry" />
        </mxCell>
        <mxCell id="48ef80bc37b76060-274" value="" style="verticalLabelPosition=bottom;html=1;verticalAlign=top;align=center;strokeWidth=1;shape=mxgraph.floorplan.plant;rounded=0;shadow=0;comic=0;fontFamily=Verdana;fontSize=12;" parent="1" vertex="1">
          <mxGeometry x="405" y="345" width="47" height="51" as="geometry" />
        </mxCell>
        <mxCell id="48ef80bc37b76060-275" value="" style="verticalLabelPosition=bottom;html=1;verticalAlign=top;align=center;strokeWidth=1;shape=mxgraph.floorplan.dresser;rounded=0;shadow=0;comic=0;fontFamily=Verdana;fontSize=12;rotation=90;" parent="1" vertex="1">
          <mxGeometry x="509" y="379" width="100" height="65" as="geometry" />
        </mxCell>
        <mxCell id="48ef80bc37b76060-337" value="" style="verticalLabelPosition=bottom;html=1;verticalAlign=top;align=center;strokeWidth=1;shape=mxgraph.floorplan.wall;fillColor=#000000;rounded=0;shadow=0;comic=0;fontFamily=Verdana;fontSize=12;" parent="1" vertex="1">
          <mxGeometry x="842" y="808" width="340" height="10" as="geometry" />
        </mxCell>
        <mxCell id="48ef80bc37b76060-338" value="" style="verticalLabelPosition=bottom;html=1;verticalAlign=top;align=center;strokeWidth=1;shape=mxgraph.floorplan.wall;fillColor=#000000;direction=south;rounded=0;shadow=0;comic=0;fontFamily=Verdana;fontSize=12;" parent="1" vertex="1">
          <mxGeometry x="842" y="572" width="10" height="150" as="geometry" />
        </mxCell>
        <mxCell id="48ef80bc37b76060-339" value="" style="verticalLabelPosition=bottom;html=1;verticalAlign=top;align=center;strokeWidth=1;shape=mxgraph.floorplan.wall;fillColor=#000000;direction=south;rounded=0;shadow=0;comic=0;fontFamily=Verdana;fontSize=12;" parent="1" vertex="1">
          <mxGeometry x="842" y="904" width="10" height="149" as="geometry" />
        </mxCell>
        <mxCell id="48ef80bc37b76060-340" value="" style="verticalLabelPosition=bottom;html=1;verticalAlign=top;align=center;strokeWidth=1;shape=mxgraph.floorplan.wall;fillColor=#000000;direction=south;rounded=0;shadow=0;comic=0;fontFamily=Verdana;fontSize=12;" parent="1" vertex="1">
          <mxGeometry x="842" y="803" width="10" height="20" as="geometry" />
        </mxCell>
        <mxCell id="48ef80bc37b76060-341" value="" style="verticalLabelPosition=bottom;html=1;verticalAlign=top;align=center;strokeWidth=1;shape=mxgraph.floorplan.doorLeft;rounded=0;shadow=0;comic=0;fontFamily=Verdana;fontSize=12;rotation=-90;" parent="1" vertex="1">
          <mxGeometry x="847" y="720" width="80" height="85" as="geometry" />
        </mxCell>
        <mxCell id="48ef80bc37b76060-342" value="" style="verticalLabelPosition=bottom;html=1;verticalAlign=top;align=center;strokeWidth=1;shape=mxgraph.floorplan.doorRight;rounded=0;shadow=0;comic=0;fontFamily=Verdana;fontSize=12;rotation=-90;" parent="1" vertex="1">
          <mxGeometry x="847" y="821" width="80" height="85" as="geometry" />
        </mxCell>
        <mxCell id="48ef80bc37b76060-343" value="" style="verticalLabelPosition=bottom;html=1;verticalAlign=top;align=center;strokeWidth=1;shape=mxgraph.floorplan.toilet;rounded=0;shadow=0;comic=0;fontFamily=Verdana;fontSize=12;rotation=-90;direction=west;flipV=1;flipH=1;" parent="1" vertex="1">
          <mxGeometry x="1387" y="654" width="50" height="67" as="geometry" />
        </mxCell>
        <mxCell id="48ef80bc37b76060-344" value="" style="verticalLabelPosition=bottom;html=1;verticalAlign=top;align=center;strokeWidth=1;shape=mxgraph.floorplan.wall;fillColor=#000000;direction=north;rounded=0;shadow=0;comic=0;fontFamily=Verdana;fontSize=12;flipV=1;flipH=1;" parent="1" vertex="1">
          <mxGeometry x="1370" y="638" width="10" height="399" as="geometry" />
        </mxCell>
        <mxCell id="48ef80bc37b76060-345" value="" style="verticalLabelPosition=bottom;html=1;verticalAlign=top;align=center;strokeWidth=1;shape=mxgraph.floorplan.toilet;rounded=0;shadow=0;comic=0;fontFamily=Verdana;fontSize=12;rotation=-90;direction=west;flipV=1;flipH=1;" parent="1" vertex="1">
          <mxGeometry x="1389" y="752" width="50" height="67" as="geometry" />
        </mxCell>
        <mxCell id="48ef80bc37b76060-346" value="" style="verticalLabelPosition=bottom;html=1;verticalAlign=top;align=center;strokeWidth=1;shape=mxgraph.floorplan.wall;fillColor=#000000;rounded=0;shadow=0;comic=0;fontFamily=Verdana;fontSize=12;direction=west;flipV=1;flipH=1;" parent="1" vertex="1">
          <mxGeometry x="1380" y="731" width="172" height="10" as="geometry" />
        </mxCell>
        <mxCell id="48ef80bc37b76060-348" value="" style="verticalLabelPosition=bottom;html=1;verticalAlign=top;align=center;strokeWidth=1;shape=mxgraph.floorplan.doorLeft;rounded=0;shadow=0;comic=0;fillColor=#FFFFFF;fontFamily=Verdana;fontSize=12;rotation=90;direction=west;flipV=1;flipH=1;" parent="1" vertex="1">
          <mxGeometry x="1478" y="644" width="80" height="85" as="geometry" />
        </mxCell>
        <mxCell id="48ef80bc37b76060-349" value="" style="verticalLabelPosition=bottom;html=1;verticalAlign=top;align=center;strokeWidth=1;shape=mxgraph.floorplan.doorLeft;rounded=0;shadow=0;comic=0;fillColor=#FFFFFF;fontFamily=Verdana;fontSize=12;rotation=90;direction=west;flipV=1;flipH=1;" parent="1" vertex="1">
          <mxGeometry x="1478" y="743" width="80" height="85" as="geometry" />
        </mxCell>
        <mxCell id="48ef80bc37b76060-350" value="" style="verticalLabelPosition=bottom;html=1;verticalAlign=top;align=center;strokeWidth=1;shape=mxgraph.floorplan.wallCorner;fillColor=#000000;direction=east;rounded=0;shadow=0;comic=0;fontFamily=Verdana;fontSize=12;flipV=1;flipH=1;" parent="1" vertex="1">
          <mxGeometry x="1373" y="826" width="323" height="14" as="geometry" />
        </mxCell>
        <mxCell id="48ef80bc37b76060-351" value="" style="verticalLabelPosition=bottom;html=1;verticalAlign=top;align=center;strokeWidth=1;shape=mxgraph.floorplan.wall;fillColor=#000000;direction=north;rounded=0;shadow=0;comic=0;fontFamily=Verdana;fontSize=12;flipV=1;flipH=1;" parent="1" vertex="1">
          <mxGeometry x="1552" y="727" width="10" height="18" as="geometry" />
        </mxCell>
        <mxCell id="48ef80bc37b76060-352" value="" style="verticalLabelPosition=bottom;html=1;verticalAlign=top;align=center;strokeWidth=1;shape=mxgraph.floorplan.wall;fillColor=#000000;direction=north;rounded=0;shadow=0;comic=0;fontFamily=Verdana;fontSize=12;flipV=1;flipH=1;" parent="1" vertex="1">
          <mxGeometry x="1552" y="637" width="10" height="9" as="geometry" />
        </mxCell>
        <mxCell id="48ef80bc37b76060-354" value="" style="verticalLabelPosition=bottom;html=1;verticalAlign=top;align=center;strokeWidth=1;shape=mxgraph.floorplan.sink_2;rounded=0;shadow=0;comic=0;fontFamily=Verdana;fontSize=12;rotation=90;direction=west;flipV=1;flipH=1;" parent="1" vertex="1">
          <mxGeometry x="1648" y="649" width="40" height="35" as="geometry" />
        </mxCell>
        <mxCell id="48ef80bc37b76060-355" value="" style="verticalLabelPosition=bottom;html=1;verticalAlign=top;align=center;strokeWidth=1;shape=mxgraph.floorplan.sink_2;rounded=0;shadow=0;comic=0;fontFamily=Verdana;fontSize=12;rotation=90;direction=west;flipV=1;flipH=1;" parent="1" vertex="1">
          <mxGeometry x="1648" y="693" width="40" height="35" as="geometry" />
        </mxCell>
        <mxCell id="48ef80bc37b76060-358" value="" style="verticalLabelPosition=bottom;html=1;verticalAlign=top;align=center;strokeWidth=1;shape=mxgraph.floorplan.doorRight;rounded=0;shadow=0;comic=0;fontFamily=Verdana;fontSize=12;rotation=90;direction=west;flipV=1;flipH=1;" parent="1" vertex="1">
          <mxGeometry x="1611" y="743" width="80" height="85" as="geometry" />
        </mxCell>
        <mxCell id="48ef80bc37b76060-359" value="" style="verticalLabelPosition=bottom;html=1;verticalAlign=top;align=center;strokeWidth=1;shape=mxgraph.floorplan.wallCorner;fillColor=#000000;direction=north;rounded=0;shadow=0;comic=0;fontFamily=Verdana;fontSize=12;flipV=1;flipH=1;" parent="1" vertex="1">
          <mxGeometry x="1370" y="631" width="326" height="114" as="geometry" />
        </mxCell>
        <mxCell id="48ef80bc37b76060-360" value="" style="verticalLabelPosition=bottom;html=1;verticalAlign=top;align=center;strokeWidth=1;shape=mxgraph.floorplan.doorLeft;rounded=0;shadow=0;comic=0;fillColor=#FFFFFF;fontFamily=Verdana;fontSize=12;rotation=90;direction=west;flipV=1;flipH=1;" parent="1" vertex="1">
          <mxGeometry x="1477" y="840" width="80" height="85" as="geometry" />
        </mxCell>
        <mxCell id="48ef80bc37b76060-361" value="" style="verticalLabelPosition=bottom;html=1;verticalAlign=top;align=center;strokeWidth=1;shape=mxgraph.floorplan.wall;fillColor=#000000;direction=north;rounded=0;shadow=0;comic=0;fontFamily=Verdana;fontSize=12;flipV=1;flipH=1;" parent="1" vertex="1">
          <mxGeometry x="1552" y="826" width="10" height="16" as="geometry" />
        </mxCell>
        <mxCell id="48ef80bc37b76060-362" value="" style="verticalLabelPosition=bottom;html=1;verticalAlign=top;align=center;strokeWidth=1;shape=mxgraph.floorplan.wall;fillColor=#000000;rounded=0;shadow=0;comic=0;fontFamily=Verdana;fontSize=12;direction=west;flipV=1;flipH=1;" parent="1" vertex="1">
          <mxGeometry x="1373" y="926" width="180" height="10" as="geometry" />
        </mxCell>
        <mxCell id="48ef80bc37b76060-363" value="" style="verticalLabelPosition=bottom;html=1;verticalAlign=top;align=center;strokeWidth=1;shape=mxgraph.floorplan.wall;fillColor=#000000;direction=north;rounded=0;shadow=0;comic=0;fontFamily=Verdana;fontSize=12;flipV=1;flipH=1;" parent="1" vertex="1">
          <mxGeometry x="1552" y="923" width="10" height="18" as="geometry" />
        </mxCell>
        <mxCell id="48ef80bc37b76060-364" value="" style="verticalLabelPosition=bottom;html=1;verticalAlign=top;align=center;strokeWidth=1;shape=mxgraph.floorplan.doorLeft;rounded=0;shadow=0;comic=0;fillColor=#FFFFFF;fontFamily=Verdana;fontSize=12;rotation=90;direction=west;flipV=1;flipH=1;" parent="1" vertex="1">
          <mxGeometry x="1477" y="939" width="80" height="85" as="geometry" />
        </mxCell>
        <mxCell id="48ef80bc37b76060-365" value="" style="verticalLabelPosition=bottom;html=1;verticalAlign=top;align=center;strokeWidth=1;shape=mxgraph.floorplan.wall;fillColor=#000000;direction=north;rounded=0;shadow=0;comic=0;fontFamily=Verdana;fontSize=12;flipV=1;flipH=1;" parent="1" vertex="1">
          <mxGeometry x="1552" y="1017" width="10" height="10" as="geometry" />
        </mxCell>
        <mxCell id="48ef80bc37b76060-366" value="" style="verticalLabelPosition=bottom;html=1;verticalAlign=top;align=center;strokeWidth=1;shape=mxgraph.floorplan.wallCorner;fillColor=#000000;direction=east;rounded=0;shadow=0;comic=0;fontFamily=Verdana;fontSize=12;flipV=1;flipH=1;" parent="1" vertex="1">
          <mxGeometry x="1373" y="925" width="323" height="110" as="geometry" />
        </mxCell>
        <mxCell id="48ef80bc37b76060-367" value="" style="verticalLabelPosition=bottom;html=1;verticalAlign=top;align=center;strokeWidth=1;shape=mxgraph.floorplan.toilet;rounded=0;shadow=0;comic=0;fontFamily=Verdana;fontSize=12;rotation=-90;direction=west;flipV=1;flipH=1;" parent="1" vertex="1">
          <mxGeometry x="1389" y="850" width="50" height="67" as="geometry" />
        </mxCell>
        <mxCell id="48ef80bc37b76060-368" value="" style="verticalLabelPosition=bottom;html=1;verticalAlign=top;align=center;strokeWidth=1;shape=mxgraph.floorplan.toilet;rounded=0;shadow=0;comic=0;fontFamily=Verdana;fontSize=12;rotation=-90;direction=west;flipV=1;flipH=1;" parent="1" vertex="1">
          <mxGeometry x="1389" y="949" width="50" height="67" as="geometry" />
        </mxCell>
        <mxCell id="48ef80bc37b76060-369" value="" style="verticalLabelPosition=bottom;html=1;verticalAlign=top;align=center;strokeWidth=1;shape=mxgraph.floorplan.sink_2;rounded=0;shadow=0;comic=0;fontFamily=Verdana;fontSize=12;rotation=90;direction=west;flipV=1;flipH=1;" parent="1" vertex="1">
          <mxGeometry x="1648" y="942" width="40" height="35" as="geometry" />
        </mxCell>
        <mxCell id="48ef80bc37b76060-370" value="" style="verticalLabelPosition=bottom;html=1;verticalAlign=top;align=center;strokeWidth=1;shape=mxgraph.floorplan.sink_2;rounded=0;shadow=0;comic=0;fontFamily=Verdana;fontSize=12;rotation=90;direction=west;flipV=1;flipH=1;" parent="1" vertex="1">
          <mxGeometry x="1648" y="986" width="40" height="35" as="geometry" />
        </mxCell>
        <mxCell id="48ef80bc37b76060-371" value="" style="verticalLabelPosition=bottom;html=1;verticalAlign=top;align=center;strokeWidth=1;shape=mxgraph.floorplan.doorRight;rounded=0;shadow=0;comic=0;fontFamily=Verdana;fontSize=12;rotation=90;flipV=1;flipH=1;direction=west;" parent="1" vertex="1">
          <mxGeometry x="1611" y="842" width="80" height="85" as="geometry" />
        </mxCell>
        <mxCell id="48ef80bc37b76060-372" value="" style="verticalLabelPosition=bottom;html=1;verticalAlign=top;align=center;strokeWidth=1;shape=mxgraph.floorplan.wall;fillColor=#000000;direction=north;rounded=0;shadow=0;comic=0;fontFamily=Verdana;fontSize=12;flipV=1;flipH=1;" parent="1" vertex="1">
          <mxGeometry x="1686" y="834" width="10" height="10" as="geometry" />
        </mxCell>
        <mxCell id="48ef80bc37b76060-7" value="" style="verticalLabelPosition=bottom;html=1;verticalAlign=top;align=center;strokeWidth=1;shape=mxgraph.floorplan.office_chair;shadow=0;rounded=0;comic=0;fontFamily=Verdana;fontSize=12;" parent="1" vertex="1">
          <mxGeometry x="1387" y="1372" width="40" height="43" as="geometry" />
        </mxCell>
        <mxCell id="48ef80bc37b76060-8" value="" style="shape=rect;shadow=0;rounded=0;comic=0;fontFamily=Verdana;fontSize=12;align=center;html=1;" parent="1" vertex="1">
          <mxGeometry x="1367" y="1392" width="80" height="50" as="geometry" />
        </mxCell>
        <mxCell id="48ef80bc37b76060-9" value="" style="verticalLabelPosition=bottom;html=1;verticalAlign=top;align=center;strokeWidth=1;shape=mxgraph.floorplan.workstation;shadow=0;flipV=1;rounded=0;comic=0;fontFamily=Verdana;fontSize=12;" parent="1" vertex="1">
          <mxGeometry x="1382" y="1402" width="50" height="40" as="geometry" />
        </mxCell>
        <mxCell id="fvuUlMKQFCcJ0z2RHUMP-2" value="" style="verticalLabelPosition=bottom;html=1;verticalAlign=top;align=center;strokeWidth=1;shape=mxgraph.floorplan.desk_corner_2;rounded=0;shadow=0;comic=0;fontFamily=Verdana;fontSize=12;flipH=1;flipV=1;" vertex="1" parent="1">
          <mxGeometry x="1770" y="1350" width="192" height="97" as="geometry" />
        </mxCell>
        <mxCell id="fvuUlMKQFCcJ0z2RHUMP-14" value="" style="verticalLabelPosition=bottom;html=1;verticalAlign=top;align=center;strokeWidth=1;shape=mxgraph.floorplan.chair;shadow=0;direction=north;rounded=0;comic=0;fontFamily=Verdana;fontSize=12;" vertex="1" parent="1">
          <mxGeometry x="1653" y="1257" width="52" height="40" as="geometry" />
        </mxCell>
        <mxCell id="fvuUlMKQFCcJ0z2RHUMP-15" value="" style="verticalLabelPosition=bottom;html=1;verticalAlign=top;align=center;strokeWidth=1;shape=mxgraph.floorplan.chair;shadow=0;direction=south;rounded=0;comic=0;fontFamily=Verdana;fontSize=12;" vertex="1" parent="1">
          <mxGeometry x="1769" y="1257" width="52" height="40" as="geometry" />
        </mxCell>
        <mxCell id="fvuUlMKQFCcJ0z2RHUMP-16" value="" style="shape=ellipse;shadow=0;rounded=0;comic=0;fontFamily=Verdana;fontSize=12;align=center;html=1;" vertex="1" parent="1">
          <mxGeometry x="1688" y="1225" width="100" height="100" as="geometry" />
        </mxCell>
        <mxCell id="fvuUlMKQFCcJ0z2RHUMP-17" value="" style="verticalLabelPosition=bottom;html=1;verticalAlign=top;align=center;strokeWidth=1;shape=mxgraph.floorplan.refrigerator;rounded=0;shadow=0;comic=0;fontFamily=Verdana;fontSize=12;rotation=90;flipV=0;flipH=1;" vertex="1" parent="1">
          <mxGeometry x="1909" y="1259.5" width="60" height="62" as="geometry" />
        </mxCell>
        <mxCell id="fvuUlMKQFCcJ0z2RHUMP-18" value="" style="verticalLabelPosition=bottom;html=1;verticalAlign=top;align=center;strokeWidth=1;shape=mxgraph.floorplan.refrigerator;rounded=0;shadow=0;comic=0;fontFamily=Verdana;fontSize=12;rotation=90;" vertex="1" parent="1">
          <mxGeometry x="1909" y="1197" width="60" height="62" as="geometry" />
        </mxCell>
        <mxCell id="fvuUlMKQFCcJ0z2RHUMP-19" value="" style="verticalLabelPosition=bottom;html=1;verticalAlign=top;align=center;strokeWidth=1;shape=mxgraph.floorplan.range_2;rounded=0;shadow=0;comic=0;fontFamily=Verdana;fontSize=12;rotation=90;" vertex="1" parent="1">
          <mxGeometry x="1899" y="1327" width="75" height="62" as="geometry" />
        </mxCell>
        <mxCell id="fvuUlMKQFCcJ0z2RHUMP-20" value="" style="verticalLabelPosition=bottom;html=1;verticalAlign=top;align=center;strokeWidth=1;shape=mxgraph.floorplan.sink_double;rounded=0;shadow=0;comic=0;fontFamily=Verdana;fontSize=12;flipV=1;" vertex="1" parent="1">
          <mxGeometry x="1691" y="1413" width="80" height="35" as="geometry" />
        </mxCell>
        <mxCell id="fvuUlMKQFCcJ0z2RHUMP-21" value="" style="verticalLabelPosition=bottom;html=1;verticalAlign=top;align=center;strokeWidth=1;shape=mxgraph.floorplan.dresser;rounded=0;shadow=0;comic=0;fontFamily=Verdana;fontSize=12;flipV=1;" vertex="1" parent="1">
          <mxGeometry x="1600" y="1387" width="100" height="65" as="geometry" />
        </mxCell>
        <mxCell id="fvuUlMKQFCcJ0z2RHUMP-23" value="" style="verticalLabelPosition=bottom;html=1;verticalAlign=top;align=center;strokeWidth=1;shape=mxgraph.floorplan.doorLeft;rounded=0;shadow=0;comic=0;fontFamily=Verdana;fontSize=12;" vertex="1" parent="1">
          <mxGeometry x="1463" y="1191" width="80" height="85" as="geometry" />
        </mxCell>
        <mxCell id="fvuUlMKQFCcJ0z2RHUMP-28" value="" style="verticalLabelPosition=bottom;html=1;verticalAlign=top;align=center;strokeWidth=1;shape=mxgraph.floorplan.doorRight;rounded=0;shadow=0;comic=0;fontFamily=Verdana;fontSize=12;" vertex="1" parent="1">
          <mxGeometry x="1540" y="1190" width="80" height="85" as="geometry" />
        </mxCell>
        <mxCell id="fvuUlMKQFCcJ0z2RHUMP-33" value="" style="verticalLabelPosition=bottom;html=1;verticalAlign=top;align=center;strokeWidth=1;shape=mxgraph.floorplan.wallU;fillColor=#000000;rounded=0;shadow=0;comic=0;fontFamily=Verdana;fontSize=12;rotation=90;direction=south;" vertex="1" parent="1">
          <mxGeometry x="1600.5" y="145.5" width="258" height="481" as="geometry" />
        </mxCell>
        <mxCell id="fvuUlMKQFCcJ0z2RHUMP-34" value="" style="verticalLabelPosition=bottom;html=1;verticalAlign=top;align=center;strokeWidth=1;shape=mxgraph.floorplan.doorRight;rounded=0;shadow=0;comic=0;fontFamily=Verdana;fontSize=12;rotation=90;direction=east;flipV=1;flipH=1;" vertex="1" parent="1">
          <mxGeometry x="1490" y="260" width="80" height="85" as="geometry" />
        </mxCell>
      </root>
    </mxGraphModel>
  </diagram>
</mxfile>
